<?xml version="1.0" standalone="no"?>
<!DOCTYPE svg PUBLIC "-//W3C//DTD SVG 1.1//EN" "http://www.w3.org/Graphics/SVG/1.1/DTD/svg11.dtd" >
<!--
2013-9-30: Created.
-->
<svg>
<metadata>
Created by iconfont
</metadata>
<defs>

<font id="iconfont" horiz-adv-x="1024" >
  <font-face
    font-family="iconfont"
    font-weight="500"
    font-stretch="normal"
    units-per-em="1024"
    ascent="896"
    descent="-128"
  />
    <missing-glyph />
    
    <glyph glyph-name="x" unicode="x" horiz-adv-x="1001"
d="M281 543q-27 -1 -53 -1h-83q-18 0 -36.5 -6t-32.5 -18.5t-23 -32t-9 -45.5v-76h912v41q0 16 -0.5 30t-0.5 18q0 13 -5 29t-17 29.5t-31.5 22.5t-49.5 9h-133v-97h-438v97zM955 310v-52q0 -23 0.5 -52t0.5 -58t-10.5 -47.5t-26 -30t-33 -16t-31.5 -4.5q-14 -1 -29.5 -0.5
t-29.5 0.5h-32l-45 128h-439l-44 -128h-29h-34q-20 0 -45 1q-25 0 -41 9.5t-25.5 23t-13.5 29.5t-4 30v167h911zM163 247q-12 0 -21 -8.5t-9 -21.5t9 -21.5t21 -8.5q13 0 22 8.5t9 21.5t-9 21.5t-22 8.5zM316 123q-8 -26 -14 -48q-5 -19 -10.5 -37t-7.5 -25t-3 -15t1 -14.5
t9.5 -10.5t21.5 -4h37h67h81h80h64h36q23 0 34 12t2 38q-5 13 -9.5 30.5t-9.5 34.5q-5 19 -11 39h-368zM336 498v228q0 11 2.5 23t10 21.5t20.5 15.5t34 6h188q31 0 51.5 -14.5t20.5 -52.5v-227h-327z" />
    

    
    <glyph glyph-name="fanhui" unicode="&#58958;" d="M480 748C214.912 748 0 533.088 0 268 0 2.912 214.912-212 480-212c265.088 0 480 214.912 480 480C960 533.088 745.088 748 480 748zM565.12 98.976c12.48-12.48 12.48-32.768 0-45.248-6.272-6.272-14.464-9.344-22.656-9.344s-16.384 3.136-22.656 9.344L328.32 245.344c-12.48 12.48-12.48 32.768 0 45.248l192.768 192.832c12.48 12.48 32.768 12.48 45.248 0s12.48-32.768 0-45.248L396.224 267.936 565.12 98.976z"  horiz-adv-x="1024" />

    
    <glyph glyph-name="tubiao201" unicode="&#58936;" d="M506.09217 799.712501c179.782033 0 326.059415-144.152896 326.059415-321.308999 0-7.250472-0.686671-15.254134-2.187934-24.004845-8.315785-50.011373-40.446071-117.083102-92.952384-194.164269-25.19296-37.00248-158.406188-189.160061-227.358844-265.670196-76.137633 76.138657-226.292508 231.668193-249.420337 265.670196-40.758194 60.140543-65.139634 130.150325-65.139634 187.41217 0 9.127306-0.995725 18.001843-2.124486 26.693199-0.373525 2.938053-0.93944 5.875083-0.93944 8.816206C192.030573 663.563267 327.056163 799.712501 506.09217 799.712501M506.09217 863.724398c-215.54216 0-378.071447-167.905995-378.071447-380.568434 0-11.505583 3.061879-23.129876 3.061879-35.509405 0-65.638008 25.007733-147.901446 76.265553-223.291007 36.756875-54.260344 300.05698-320.811649 304.747017-320.811649 3.997226 0 240.8569 266.303653 277.862451 320.811649 51.261913 75.140885 92.014991 152.652885 103.143979 219.539386 2.001683 11.877061 3.063926 23.380598 3.063926 34.508564C896.164504 691.19386 721.44808 863.724398 506.09217 863.724398L506.09217 863.724398zM512.216951 608.175186c70.514296 0 127.899967-57.446049 127.899967-128.084171 0-70.576721-57.385671-127.962392-127.899967-127.962392-70.6985 0-128.146596 57.385671-128.146596 127.962392C384.070356 550.729137 441.518451 608.175186 512.216951 608.175186M512.216951 672.190152c-106.081009 0-192.157469-85.889186-192.157469-192.098114 0-106.021654 86.07646-191.974288 192.157469-191.974288 105.958206 0 191.91391 85.952634 191.91391 191.974288C704.130862 586.299943 618.175158 672.190152 512.216951 672.190152L512.216951 672.190152z"  horiz-adv-x="1025" />

    
    <glyph glyph-name="sousuo" unicode="&#58885;" d="M949.433724-89.786541 742.473115 117.175091c56.635905 66.875107 90.937129 153.268756 90.937129 247.790526 0 212.048487-171.923628 383.973138-383.973138 383.973138S65.464991 577.014104 65.464991 364.965617s171.923628-383.973138 383.973138-383.973138c94.52177 0 180.915419 34.301224 247.790526 90.905406L904.189264-135.062723c14.015202-14.015202 35.485189-15.230889 47.997154-2.719948C964.664613-125.27173 963.448926-103.801742 949.433724-89.786541zM449.437106 44.988002c-176.722934 0-319.977615 143.253658-319.977615 319.977615s143.253658 319.977615 319.977615 319.977615 319.977615-143.253658 319.977615-319.977615S626.161063 44.988002 449.437106 44.988002z"  horiz-adv-x="1024" />

    
    <glyph glyph-name="kefu" unicode="&#59098;" d="M917.815652 447.834435C863.855304 621.068522 703.020522 747.154087 512 747.154087S160.144696 621.068522 106.184348 447.834435C55.251478 408.922435 22.26087 347.727304 22.26087 278.696348c0-92.204522 58.701913-170.473739 140.688696-200.080696 65.758609-94.564174 168.559304-161.146435 287.588174-178.44313 7.346087-27.202783 31.944348-47.326609 61.462261-47.326609 35.261217 0 63.866435 28.605217 63.866435 63.866435 0 35.283478-28.605217 63.888696-63.866435 63.888696-25.889391 0-48.061217-15.471304-58.078609-37.598609-89.778087 13.757217-169.093565 58.457043-226.949565 123.191652 2.760348-0.111304 5.476174-0.422957 8.236522-0.422957 47.014957 0 85.170087 38.13287 85.170087 85.170087L320.378435 406.451478c0 47.037217-38.15513 85.170087-85.170087 85.170087-25.35513 0-49.574957-4.652522-72.102957-12.777739C223.165217 611.852522 356.574609 704.569043 512 704.569043s288.834783-92.716522 348.91687-225.725217c-22.528 8.125217-46.747826 12.777739-72.102957 12.777739-47.014957 0-85.170087-38.13287-85.170087-85.170087l0-255.510261c0-47.037217 38.15513-85.170087 85.170087-85.170087 117.604174 0 212.925217 95.321043 212.925217 212.925217C1001.73913 347.727304 968.748522 408.922435 917.815652 447.834435zM512-61.984c11.753739 0 21.303652-9.527652 21.303652-21.303652 0-11.753739-9.549913-21.281391-21.303652-21.281391s-21.303652 9.527652-21.303652 21.281391C490.696348-71.511652 500.246261-61.984 512-61.984zM277.793391 406.451478l0-255.510261c0-23.529739-19.055304-42.585043-42.585043-42.585043-94.096696 0-170.340174 76.243478-170.340174 170.340174s76.265739 170.340174 170.340174 170.340174C258.715826 449.036522 277.793391 429.981217 277.793391 406.451478zM788.813913 108.378435c-23.529739 0-42.585043 19.055304-42.585043 42.585043L746.22887 406.451478c0 23.529739 19.055304 42.585043 42.585043 42.585043 94.096696 0 170.340174-76.243478 170.340174-170.340174S882.888348 108.378435 788.813913 108.378435z"  horiz-adv-x="1024" />

    
    <glyph glyph-name="guanzhu" unicode="&#58901;" d="M511.999488-60.431092l-16.98893 16.98893 16.98893 16.98893-17.23657-16.740266C287.176047 164.396443 72.541665 379.027755 72.541665 596.727962c0 127.781268 104.001679 231.703129 231.78704 231.703129 104.249319 0 160.602791-48.39522 207.670783-129.028679 47.072085 80.633459 103.421464 129.028679 207.754694 129.028679 127.785362 0 231.703129-103.921861 231.703129-231.703129 0-217.863936-214.7142-432.583253-422.469917-640.170125L511.999488-60.431092zM304.327682 780.36333c-101.267405 0-183.719278-82.372056-183.719278-183.635367 0-192.257745 196.151425-393.71706 391.391085-589.121472 195.323571 195.323571 391.394155 396.779815 391.394155 589.121472 0 101.263311-82.372056 183.635367-183.63946 183.635367-86.018096 0-133.090181-35.964096-186.210006-142.535297l-21.545712-43.090401-21.545712 43.090401C437.333952 744.400257 390.345778 780.36333 304.327682 780.36333z"  horiz-adv-x="1024" />

    
    <glyph glyph-name="zhuanfa01" unicode="&#58966;" d="M478.049504-59.409274c-54.67835 0-107.730604 10.713399-157.685193 31.842405-48.240486 20.404477-91.560729 49.609722-128.756252 86.806268-37.196546 37.196546-66.401791 80.516789-86.806268 128.757275-21.129005 49.953566-31.842405 103.007867-31.842405 157.685193 0 54.677327 10.713399 107.730604 31.842405 157.685193 20.404477 48.240486 49.609722 91.560729 86.806268 128.756252 37.196546 37.196546 80.515766 66.401791 128.756252 86.806268 49.954589 21.129005 103.006844 31.842405 157.685193 31.842405 11.045987 0 20.000256-8.954269 20.000256-20.000256s-8.955293-20.000256-20.000256-20.000256c-201.310393 0-365.088583-163.77819-365.088583-365.088583 0-201.310393 163.77819-365.089607 365.088583-365.089607 201.311417 0 365.089607 163.77819 365.089607 365.089607 0 11.045987 8.954269 20.000256 20.000256 20.000256s20.000256-8.954269 20.000256-20.000256c0-54.677327-10.713399-107.731628-31.842405-157.685193-20.404477-48.241509-49.609722-91.560729-86.807291-128.757275-37.196546-37.195523-80.516789-66.401791-128.756252-86.806268C585.780109-48.695875 532.726831-59.409274 478.049504-59.409274zM931.040358 787.407739 695.700672 787.407739c-11.045987 0-20.000256 8.954269-20.000256 20.000256s8.954269 20.000256 20.000256 20.000256l235.339687 0c11.045987 0 20.000256-8.954269 20.000256-20.000256S942.086345 787.407739 931.040358 787.407739zM931.040358 552.068052c-11.045987 0-20.000256 8.954269-20.000256 20.000256L911.040102 807.407995c0 11.045987 8.954269 20.000256 20.000256 20.000256s20.000256-8.954269 20.000256-20.000256l0-235.338663C951.040614 561.023345 942.086345 552.068052 931.040358 552.068052zM410.886345 267.252702c-5.119795 0-10.236521 1.952542-14.142629 5.857627-7.811193 7.811193-7.811193 20.475088 0 28.286281L914.3189 818.971794c7.81324 7.810169 20.475088 7.811193 28.286281 0s7.810169-20.474065 0-28.285257L425.028973 273.110329C421.123889 269.206268 416.004093 267.252702 410.886345 267.252702z"  horiz-adv-x="1024" />

    
    <glyph glyph-name="zhuxiao" unicode="&#58934;" d="M519.882 319.221c21.117 0 38.236 17.119 38.236 38.236l0 436.213c0 21.117-17.119 38.236-38.236 38.236s-38.236-17.119-38.236-38.236v-436.212c-0-21.118 17.119-38.237 38.236-38.237zM875.899 611.156c-45.687 69.296-109.738 123.892-185.228 157.884-19.258 8.671-41.893 0.090-50.564-19.166-8.67-19.256-0.089-41.893 19.166-50.564 128.687-57.946 211.839-186.549 211.839-327.632 0-198.015-161.097-359.112-359.112-359.112s-359.112 161.098-359.112 359.112c0 139.463 81.813 267.455 208.429 326.074 19.163 8.872 27.505 31.599 18.633 50.761-8.872 19.163-31.598 27.505-50.761 18.633-74.4-34.444-137.446-89.038-182.323-157.879-46.089-70.697-70.448-152.854-70.448-237.591 0-58.786 11.522-115.835 34.246-169.56 21.941-51.873 53.343-98.453 93.334-138.444 39.991-39.991 86.57-71.392 138.444-93.334 53.726-22.724 110.773-34.246 169.56-34.246s115.835 11.522 169.56 34.246c51.873 21.942 98.453 53.343 138.444 93.334 39.991 39.991 71.393 86.57 93.334 138.444 22.725 53.726 34.246 110.774 34.246 169.56-0.001 85.538-24.79 168.347-71.686 239.478z"  horiz-adv-x="1024" />

    
    <glyph glyph-name="zhengpin-copy" unicode="&#58881;" d="M879.561 720.231c-45.631-30.882-144.043-22.954-188.268-6.761-77.492 28.372-144.811 109.69-190.461 141.443-45.65-31.755-108.055-104.886-190.46-141.443-42.572-18.886-140.627-24.69-186.215 5.402-19.634-42.060-20.42-188.667-8.634-250.112 49.682-259.010 316.547-565.115 386.653-565.115 67.42 0 335.921 309.379 386.653 565.115 12.242 61.709 10.77 209.137-9.268 251.471zM701.060 204.288h-405.911v40.932h61.398v214.894h47.755v-214.894h92.097v271.175h-182.491v44.343h373.507v-44.343h-141.558v-105.742h126.208v-44.343h-126.208v-121.092h155.202v-40.931z"  horiz-adv-x="1024" />

    
    <glyph glyph-name="qianghuole" unicode="&#58947;" d="M512-110.344828C240.110345-110.344828 17.655172 112.128 17.655172 384S240.110345 878.344828 512 878.344828c271.854345 0 494.344828-222.472828 494.344828-494.344828S783.854345-110.344828 512-110.344828zM512 844.8C257.765517 844.8 51.182345 638.234483 51.182345 384c0-254.216828 206.565517-460.817655 460.817655-460.817655 254.199172 0 460.8 206.565517 460.8 460.817655S766.199172 844.8 512 844.8zM263.026759 385.783172c5.314207 1.783172 28.283586 7.044414 72.421517 17.655172L335.448276 525.241379l-65.306483 0 0 33.527172L335.448276 558.768552l0 95.320276 38.823724 0 0-95.320276 60.027586 0L434.299586 525.241379l-60.027586 0 0-111.227586c19.456 3.513379 37.111172 8.827586 61.793103 14.124138 0-7.044414 0-21.186207 0-38.841379-5.314207-1.765517-24.681931-7.044414-59.992276-15.872L376.072828 230.4c0-35.310345-17.655172-56.478897-51.2-56.478897-12.340966 0-26.482759 0-45.903448 0C277.168552 186.262069 275.42069 198.62069 271.889655 214.510345c17.655172-1.783172 29.996138-1.783172 40.624552-1.783172 15.854345 0 24.681931 8.827586 24.681931 24.699586l0 127.117241c-21.168552-5.296552-42.337103-10.610759-68.819862-17.655172L263.026759 385.783172zM614.417655 652.358621c-1.800828-5.314207-3.54869-8.827586-7.062069-14.141793 38.823724-68.837517 90.041379-120.055172 153.582345-151.834483-10.593103-14.141793-21.168552-24.717241-26.482759-35.310345-59.992276 38.823724-109.444414 88.275862-146.520276 150.068966-31.796966-56.496552-81.249103-107.714207-148.303448-155.383172-7.062069 8.827586-15.889655 19.438345-24.717241 30.013793 72.421517 45.921103 123.586207 104.147862 158.896552 173.02069L614.417655 652.358621 614.417655 652.358621zM469.627586 466.97931l225.968552 0c-3.513379-47.668966-5.278897-84.762483-8.827586-116.541793-5.278897-42.354759-28.248276-63.576276-72.386207-63.576276-28.248276 0-52.965517 0-70.62069 1.783172-1.765517 10.593103-5.314207 24.699586-8.827586 42.354759 24.717241-1.783172 49.452138-3.531034 72.386207-3.531034 22.969379 0 35.310345 10.610759 38.859034 31.796966 3.513379 22.951724 5.278897 45.921103 7.026759 72.403862l-146.520276 0L506.685793 260.413793c0-28.265931 15.854345-44.137931 45.903448-44.137931l100.616828 0c26.482759 0 42.372414 12.358621 45.938759 33.527172 3.513379 21.186207 7.062069 42.354759 10.593103 65.324138 14.141793-5.314207 26.482759-10.610759 38.823724-14.141793-5.278897-24.699586-8.827586-49.434483-14.106483-70.62069-8.827586-35.310345-31.796966-54.731034-74.169379-54.731034l-118.272 0c-51.16469 0-75.934897 24.699586-75.934897 74.134069L466.078897 466.961655 469.627586 466.97931 469.627586 466.97931z"  horiz-adv-x="1024" />

    
    <glyph glyph-name="hua1" unicode="&#58928;" d="M398.473387-36.176688c-9.156544 0-18.252713 3.602038-24.846898 10.730389-86.493933 93.662193-226.397287 94.565772-229.285057 94.565772l-0.204661 0c-18.252713 0-33.148981 14.246469-33.278941 31.895431-0.145309 17.753339 14.556531 32.219819 32.883945 32.409131 6.90834 0.360204 172.152848 0.189312 279.497669-116.03576 12.248975-13.237489 11.04966-33.558303-2.65241-45.396933C414.268118-33.474137 406.345682-36.176688 398.473387-36.176688L398.473387-36.176688 398.473387-36.176688zM621.47432-36.117336c-8.076956 0-16.189727 2.832512-22.608927 8.591679-13.471826 12.048407-14.301727 32.405037-1.797949 45.427632 111.165846 116.070552 273.059026 115.940592 279.44241 115.681696 18.392906-0.189312 33.119305-14.721283 32.918737-32.474622-0.199545-17.647939-15.031345-31.829939-33.253358-31.829939l-0.265036 0 0 0c-2.761903 0-139.838885-0.873903-230.05356-95.075379C639.332037-32.669818 630.390387-36.117336 621.47432-36.117336L621.47432-36.117336 621.47432-36.117336zM562.854225 127.409041 457.468013 127.409041c-3.356444 0-6.618744 0.485047-9.716292 1.413186-112.499214 13.96199-208.104665 77.077469-269.727141 178.277336-71.52808 117.554346-87.927585 269.851984-40.741913 379.014196 5.084808 11.729136 16.864086 19.476587 30.037107 19.741623l10.011005 0.095167c63.345724 0 122.510218-11.574616 176.354544-34.468023 38.898939 68.77027 83.3268 120.956839 132.315538 155.423839 2.593058 2.177596 5.54939 4.01136 8.841366 5.370311l0 0c10.275018 4.306072 22.219047 3.37691 31.625278-2.548032 1.62808-1.02433 3.162016-2.182712 4.550643-3.466961 49.118698-34.851763 92.318592-86.258573 131.431402-156.482961 54.893214 23.977088 115.426893 36.136012 180.435489 36.136012l10.17064-0.095167c13.18223-0.25992 24.951275-7.997138 30.03199-19.741623 47.195905-109.182678 30.826076-261.494643-40.771589-379.038756-61.617359-101.139491-157.186995-164.306136-269.656533-178.272219C569.502645 127.918647 566.240345 127.409041 562.854225 127.409041L562.854225 127.409041 562.854225 127.409041zM463.382723 191.709509l93.551676 0c0.694825 0.135076 1.418302 0.230244 2.158153 0.324388 120.246665 12.927427 189.217503 87.482447 225.90303 147.700947 56.162114 92.323709 73.190953 212.955136 44.193525 301.761742-60.523445-1.90335-115.995851-16.255219-165.044964-42.74964-8.017604-4.295839-17.498536-5.209652-26.165939-2.622734-8.721639 2.622734-15.945157 8.636704-19.961634 16.584724-33.717939 66.677609-69.869301 115.741048-109.976764 149.184741-40.132022-33.368992-77.077469-82.792635-110.071931-147.286508-4.016477-7.837502-11.134595-13.757329-19.781532-16.389272-8.646937-2.672876-17.952884-1.778506-25.940812 2.402723-48.01455 25.240871-102.184287 38.97364-161.083745 40.83708-28.997428-88.811722-11.973706-209.438033 44.188408-301.721833 36.690644-60.2185 105.615433-134.74896 225.837538-147.700947C461.918371 191.93873 462.647989 191.843562 463.382723 191.709509L463.382723 191.709509 463.382723 191.709509zM509.908362-64.185602c-18.358113 0-33.253358 14.371312-33.253358 32.154327L476.655004 159.569508c0 17.773805 14.896268 32.140001 33.253358 32.140001s33.253358-14.366196 33.253358-32.140001l0-191.599759C543.132044-49.81429 528.266475-64.185602 509.908362-64.185602L509.908362-64.185602 509.908362-64.185602zM509.908362-64.185602"  horiz-adv-x="1024" />

    
    <glyph glyph-name="iosboltoutline" unicode="&#59013;" d="M547.8 632l-33-178.2L508 416l38.4 0 129.6 0-199.6-280 33 178.2L516 352l-38.4 0-129.4 0L547.8 632M605.4 768 286 320l191.6 0-59-320L738 448l-191.6 0L605.4 768 605.4 768z"  horiz-adv-x="1024" />

    
    <glyph glyph-name="jia" unicode="&#59101;" d="M239.458456 370.406897l242.152306 0 0-242.152306c0-11.749037 9.535127-21.284164 21.284164-21.284164 11.749037 0 21.284164 9.535127 21.284164 21.284164L524.17909 370.406897l242.150586 0c11.747317 0 21.284164 9.535127 21.284164 21.284164 0 11.747317-9.536847 21.284164-21.284164 21.284164L524.17737 412.975225 524.17737 655.12409c0 11.749037-9.536847 21.284164-21.284164 21.284164-11.749037 0-21.284164-9.535127-21.284164-21.284164l0-242.150586L239.458456 412.973505c-11.749037 0-21.284164-9.536847-21.284164-21.284164C218.176012 379.942024 227.709419 370.406897 239.458456 370.406897L239.458456 370.406897zM512.00344-128c282.305458 0 512 229.694542 512 512S794.310619 896 512.00344 896 0.00344 666.307179 0.00344 384 229.697982-128 512.00344-128L512.00344-128zM512.00344 853.433392c258.838347 0 469.431672-210.595045 469.431672-469.431672 0-258.838347-210.595045-469.433392-469.431672-469.433392S42.571768 125.161653 42.571768 384C42.571768 642.838347 253.166813 853.433392 512.00344 853.433392L512.00344 853.433392z"  horiz-adv-x="1025" />

    
    <glyph glyph-name="yonghuming" unicode="&#58992;" d="M397.408637 322.51874C305.846268 378.316557 252.950548 456.717162 249.72918 564.653453c-2.25639 75.637678 23.433712 141.268444 75.544557 195.875133 114.332978 119.80562 296.67284 116.643604 408.607188-4.359284 118.613468-128.2305 85.85846-350.568331-76.44609-433.882851 7.922437-3.454682 15.031345-6.603395 22.176069-9.66922 112.082728-48.113811 189.42114-129.47177 229.989091-244.722654 9.222035-26.205848 13.085016-54.327326 18.926048-81.670068 1.003863-4.701069 0.298805-10.108219-0.881067-14.867616-2.932796-11.908214-11.391445-18.122753-22.86373-17.744129-12.177344 0.400113-20.999266 7.795547-23.484877 19.627013-4.674463 22.224164-7.238868 45.157479-14.412244 66.536392-45.565778 135.692449-136.917346 221.630726-278.738375 246.953462-121.492028 21.686928-227.118718-13.547551-314.566372-101.085256-56.69628-56.746422-88.542592-126.020158-99.026364-205.392904-1.981121-14.987343-7.973602-23.50125-19.045775-26.208918-16.740266-4.093225-31.012318 8.543583-29.343305 26.217105 6.011924 63.59848 26.568099 122.220622 61.193711 175.702698 46.928822 72.494081 110.582561 124.972293 190.379978 157.732417 5.120624 2.100848 10.152221 4.419659 15.217586 6.65456C393.907906 320.774003 394.836045 321.261097 397.408637 322.51874zM527.324522 340.817502c125.549437-0.029676 226.669486 101.171214 228.571812 224.245274 2.066055 134.033669-104.262622 231.137241-222.742037 234.214323-124.011408 3.221368-232.493122-95.703689-234.541781-225.580688C296.60479 446.395072 398.330636 340.858434 527.324522 340.817502z"  horiz-adv-x="1024" />

    
    <glyph glyph-name="qian" unicode="&#58882;" d="M761.111 721.144h-93.468L562.549 527.502c-28.028-52.478-45.17-87.36-51.43-104.648h-1.789c-18.489 42.038-70.66 141.465-156.524 298.29h-98.834l183.804-315.732h-150.71v-69.764h176.648v-96.152H287.065v-70.659h176.649v-139.978h87.652V168.837h170.388v70.66H551.367v96.151h170.388v69.764H575.518l185.593 315.732z"  horiz-adv-x="1024" />

    
    <glyph glyph-name="weixin" unicode="&#58899;" d="M579.598841 384.445217A24.635362 24.635362 0 0 1 556.521739 360.255072a24.264348 24.264348 0 0 1 23.373913-21.667246c17.511884 0 29.681159 10.833623 29.68116 21.667246 0 13.356522-12.54029 24.190145-29.68116 24.190145zM502.798841 497.011014a27.826087 27.826087 0 0 1 29.681159 29.16174 27.38087 27.38087 0 0 1-29.681159 29.161739c-17.511884 0-34.207536-10.833623-34.207537-29.161739s16.695652-29.161739 34.207537-29.16174zM512 896a512 512 0 1 1 512-512A512 512 0 0 1 512 896zM415.536232 254.293333a275.812174 275.812174 0 0 0-82.587826 13.356522l-84.591305-42.592464 24.190145 71.754203C213.333333 338.513623 178.086957 391.42029 178.086957 455.308986c0 113.456232 106.777971 200.347826 236.929855 200.347826 115.088696 0 217.711304-68.415072 237.449275-165.175653a115.533913 115.533913 0 0 1-22.26087 2.522899c-113.456232 0-201.015652-85.110725-201.015652-187.65913a201.089855 201.089855 0 0 1 6.678261-50.086957 175.044638 175.044638 0 0 0-20.851014-0.816232z m347.863188-81.623188l16.695652-60.030145-63.369275 35.84c-24.190145-4.971594-47.564058-12.54029-71.754203-12.54029-111.749565 0-200.347826 76.725797-200.347826 171.853913s88.449855 171.853913 200.347826 171.853913c105.590725-0.148406 200.941449-76.874203 200.941449-172.002319 0-53.351884-35.84-100.915942-82.587826-135.123478zM337.623188 555.408696c-17.511884 0-35.84-10.833623-35.84-29.161739s18.328116-29.235942 35.84-29.235943a28.716522 28.716522 0 0 1 29.68116 29.235943 28.197101 28.197101 0 0 1-29.68116 29.161739z m372.869566-170.666667a24.041739 24.041739 0 0 1-23.373913-24.190145 23.596522 23.596522 0 0 1 23.373913-21.667246c16.695652 0 29.161739 10.833623 29.161739 21.667246 0 13.356522-12.54029 24.190145-29.161739 24.190145z m0 0"  horiz-adv-x="1024" />

    
    <glyph glyph-name="mima" unicode="&#58897;" d="M510.596024-128c-210.943316 0-382.565069 171.606403-382.565069 382.565069L128.030955 445.847603l765.130138 0 0-191.282534C893.161093 43.606403 721.53934-128 510.596024-128zM191.791118 382.087441l0-127.521349c0-175.778422 143.010111-318.803883 318.803883-318.803883s318.803883 143.026484 318.803883 318.803883L829.398884 382.087441 191.791118 382.087441zM510.596024 31.402453c-52.459792 0-95.205339 42.466184-95.641267 94.831832l0 64.570621c0 52.740178 42.901089 95.641267 95.641267 95.641267s95.641267-42.901089 95.641267-95.641267l0-64.570621C605.801363 73.868637 563.055816 31.402453 510.596024 31.402453zM510.596024 222.684988c-17.574261 0-31.880081-14.290471-31.880081-31.880081l0-63.761186c0-17.590634 14.305821-31.880081 31.880081-31.880081s31.880081 14.290471 31.880081 31.880081l0 63.761186C542.476105 208.394517 528.170285 222.684988 510.596024 222.684988zM765.639744 509.608789l-63.761186 0L701.878558 647.155469c0 99.93813-85.803201 181.257204-191.282534 181.257204s-191.282534-81.320097-191.282534-181.257204l0-137.546679-63.761186 0L255.552304 647.155469c0 135.118374 114.414843 245.01839 255.04372 245.01839S765.639744 782.273842 765.639744 647.155469L765.639744 509.608789z"  horiz-adv-x="1024" />

    
    <glyph glyph-name="tui" unicode="&#58931;" d="M476.818613 618.963329H656.963579c5.77174 0 8.660474 2.886443 8.660475 8.657038v10.973065c0 4.619454-0.617378 7.960626-1.734157 10.105986-1.156868 2.10298-4.287284 3.175087-9.280143 3.175088H476.240179c-3.092617 0-5.196743-0.870515-6.35132-2.60009-1.155723-1.729575-1.73072-5.278067-1.73072-10.68213v-10.973065c0-5.770595 2.886443-8.655893 8.661619-8.655892zM476.818613 527.154971h177.255087c7.674273 0 11.550353 4.659544 11.550354 13.858362v12.126497c0 5.77174-2.888734 8.660474-8.659329 8.660474H476.817468c-5.776322 0-8.66162-2.888734-8.66162-8.660474v-17.324385c0-5.76945 2.886443-8.659329 8.66162-8.659329zM902.040913 850.38962C834.289682 866.451758 688.921772 895.142085 514.866971 895.142085 340.035579 895.14323 191.092832 866.197477 122.043848 850.175427 97.94434 844.583517 80.900582 823.084098 80.900582 798.344304V395.820671c0-158.505808 82.107848-305.699508 216.976895-388.973387l216.987203-133.976769 213.507436 133.623982c133.523186 83.567105 214.618488 229.989942 214.618488 387.507257V798.602022c0 24.668779-16.946398 46.09489-40.950837 51.786452zM400.605065 655.91438c0 23.464949 4.412134 39.054031 13.321163 46.767249 8.824268 7.710926 28.618166 11.548063 59.427508 11.548062h203.238801c20.005799 0 34.439159-4.53813 43.304662-13.568572 8.86894-9.032734 13.283365-23.964349 13.283365-44.746739v-132.221995c0-18.067758-3.674488-32.499973-10.973065-43.264573 3.464877 0 7.216107-0.947257 11.218183-2.886443 4.084546-1.899096 7.714362-4.495749 11.012009-7.794541 3.256412-3.258702 5.97906-6.927463 8.040806-10.973065 2.146506-4.04102 3.177378-7.998425 3.177378-11.832125 0-8.086622-4.906953-16.542067-14.684206-25.409862-9.813906-8.865503-25.691633-20.411275-47.635472-34.643042-3.092617-1.93804-4.616018-3.547347-4.616018-4.904662 0-1.320662 1.359606-2.765029 4.085691-4.293012 15.379472-8.864358 28.208107-16.327875 38.394273-22.5154 10.187311-6.18638 17.815767-11.179239 22.807481-15.01294 10.39234-6.929754 15.589083-14.601736 15.589083-23.09498 0-8.086622-3.669906-16.375982-10.973065-24.869225-7.337521-8.086622-15.095409-12.126497-23.383624-12.126497-8.24698 0-18.55685 3.876081-30.888376 11.548063-54.647696 34.641897-117.210201 70.607893-187.649718 107.970147-13.486103 7.713217-20.209682 15.385199-20.209682 23.09498 0 8.085477 3.669906 16.332456 11.012009 24.830282 7.714362 8.824268 15.589083 13.277638 23.631033 13.277638 5.031803 0 10.020081-1.358461 15.01294-4.042166l69.32732-35.795329c4.249485-2.683705 7.094694-4.04102 8.661619-4.04102 3.8337 0 15.177879 7.090112 34.022228 21.364259 19.262425 14.596009 28.871302 22.5154 28.871303 23.669978 0 1.526837-2.848644 2.3103-8.662766 2.3103H476.857557c-5.77174 0-8.660474-2.886443-8.660474-8.662765v-96.423231c0-5.77174 2.023946-8.658183 6.020295-8.658183 4.085691 0 13.775893 2.10298 29.162237 6.35132 7.708635 2.305718 13.977485 4.28843 18.763025 6.018004 4.823338 1.735302 8.951409 3.092617 12.45523 4.084546 3.466022 0.908313 6.307794 1.729575 8.66162 2.3103a28.345557 28.345557 0 0 0 6.927463 0.864787c9.982282 0 17.488179-4.249485 22.518837-12.702639 9.566497-15.795257 9.981136-28.453226 1.111051-38.106774-4.575928-4.6206-15.959051-10.808125-34.022228-18.477817-19.672483-8.453154-38.687499-14.061101-57.203114-16.74366a699.285477 699.285477 0 0 0-24.540492-3.466022c-6.718998-0.783463-12.247911-1.112197-16.452725-1.112197-14.970559 0-25.570219 4.28843-31.7566 12.948904-6.185235 8.660474-9.236617 22.84757-9.236617 42.437583V655.915526z m-169.177629 39.261352c1.526837 4.616018 3.754667 8.946828 6.64111 13.031373 2.886443 4.084546 6.43379 7.297432 10.68213 9.816197 4.249485 2.513038 9.237763 3.752376 15.012939 3.752376 11.546917 0 27.918318-6.55864 49.079839-19.628958a3329.592125 3329.592125 0 0 1 27.709852-17.324384c8.086622-5.031803 14.931615-9.607732 20.498327-13.856072 5.569002-4.249485 9.734872-8.57915 12.41285-12.993575 2.682559-4.451078 4.04102-9.362613 4.04102-14.760949 0-9.610022-3.669906-18.270497-10.968483-25.984859-6.929754-8.043096-14.518121-12.121915-22.807481-12.121915-8.290506 0-15.505468 2.349244-21.648322 6.927464-14.641826 11.174658-40.254425 27.507114-76.795418 49.078693-10.802398 6.185235-16.162935 13.321163-16.162935 21.36426-0.001145 3.831409 0.782318 8.079749 2.304572 12.700349zM772.192215 228.358872c-0.617378-6.723579-2.600089-12.41285-6.064967-17.032304-3.832555-5.400626-8.865503-9.030443-14.969414-10.969628-5.814121-1.93804-22.767391-3.092617-50.810559-3.466023-28.452081-1.155723-54.64655-1.729575-78.523848-1.729575-46.973423 0-86.317244 0.864787-118.034899 2.556564-31.79898 1.73072-56.294801 4.534694-73.61804 8.372975-34.641897 6.926318-62.192537 20.411275-82.564868 40.417074-4.616018 4.577074-9.237763 6.927463-13.858363 6.927463-4.243758 0-8.492098-1.527982-12.70264-4.620599-3.460295-3.461441-10.966192-12.701494-22.514255-27.714434-10.7646-15.009503-18.477817-24.042237-23.094979-27.134855-4.375481-3.012438-10.313306-4.578219-18.023088-4.578219-3.839427 0-7.960626 0.864787-12.41285 2.600089-4.45566 1.73072-8.49668 4.163579-12.126496 7.216108a37.844474 37.844474 0 0 0-8.95141 10.968483c-2.306864 4.293011-3.461441 8.86894-3.461441 13.857217 0 5.815266 1.357315 11.179239 4.039875 16.211043 3.094908 5.400626 10.973065 15.009503 23.674559 28.86672 6.515114 6.930899 13.567427 13.857217 21.07447 20.789262a754.966336 754.966336 0 0 0 22.8029 20.207391c1.899096 1.89566 2.886443 4.244904 2.886443 6.927463V469.419239c0 5.360537-0.657468 8.946828-2.019365 10.683276-1.358461 1.729575-3.752376 2.594362-7.217253 2.594362h-31.175875c-10.396922 0-18.88902 3.092617-25.405279 9.237763-6.55864 6.147436-9.816197 13.857217-9.816197 23.099561 0 9.236617 3.257557 16.949834 9.816197 23.093835 6.51626 6.145145 15.008358 9.237763 25.405279 9.237763h62.931329c17.324385 0 29.36383-5.114273 36.08741-15.299293 6.761378-10.228546 10.107132-26.478532 10.107132-48.787759v-169.714828c0-1.93804 0.573852-3.668761 1.729575-5.195597 1.527982-2.348098 7.880447-7.134783 19.055105-14.47574a170.628868 170.628868 0 0 1 19.053959-10.39234c6.559785-3.049092 13.651043-5.770595 21.403204-8.080895a163.153897 163.153897 0 0 1 24.539347-6.311231c8.659329-1.5234 17.815767-2.679123 27.424644-3.462586 9.608877-0.786899 22.108779-1.363043 37.531776-1.735302 15.384054-0.412349 33.649969-0.618523 54.850434-0.618523 21.528054 0 41.945056 0.28979 61.165101 0.865933 19.258989 0.578434 37.733369 1.237047 55.467812 2.023946 17.690917 0.783463 31.055606 1.358461 40.12843 1.729575 9.033879 0.412349 13.939687 0.576143 14.684205 0.576143 7.342103 0.825843 13.484957-0.903732 18.473235-5.195597 4.992859-4.249485 8.57915-9.445083 10.68213-15.589083 2.144215-6.145145 2.889879-12.622461 2.351535-19.34375z"  horiz-adv-x="1024" />

    
    <glyph glyph-name="tui1" unicode="&#58933;" d="M477.240889 622.250667h178.005333c5.688889 0 8.533333 2.844444 8.533334 8.533333V641.706667c0 4.551111-0.568889 7.907556-1.706667 10.012444-1.137778 2.048-4.209778 3.128889-9.159111 3.128889H476.672c-3.072 0-5.12-0.853333-6.257778-2.56-1.137778-1.706667-1.706667-5.233778-1.706666-10.581333v-10.808889c0-5.688889 2.844444-8.533333 8.533333-8.533334zM477.240889 531.569778h175.160889c7.566222 0 11.377778 4.551111 11.377778 13.653333v12.003556c0 5.688889-2.844444 8.533333-8.533334 8.533333H477.240889c-5.688889 0-8.533333-2.844444-8.533333-8.533333v-17.066667c0-5.745778 2.844444-8.590222 8.533333-8.590222zM897.365333 850.944A1711.217778 1711.217778 0 0 1 514.844444 895.146667c-172.771556 0-319.943111-28.615111-388.152888-44.373334a52.565333 52.565333 0 0 1-40.618667-51.256889v-397.710222a451.697778 451.697778 0 0 1 214.357333-384.341333L514.844444-114.915556l210.944 131.982223a451.697778 451.697778 0 0 1 212.081778 382.919111V799.744c0 24.405333-16.782222 45.568-40.504889 51.2zM401.92 658.773333c0 23.210667 4.380444 38.570667 13.198222 46.193778 8.704 7.623111 28.273778 11.434667 58.709334 11.434667h200.817777c19.740444 0 34.019556-4.494222 42.780445-13.425778 8.760889-8.931556 13.084444-23.665778 13.084444-44.202667v-130.616889c0-17.863111-3.584-32.142222-10.808889-42.780444a25.6 25.6 0 0 0 11.093334-2.844444 42.951111 42.951111 0 0 0 18.773333-18.545778c2.161778-3.982222 3.185778-7.907556 3.185778-11.662222 0-7.964444-4.835556-16.384-14.506667-25.144889-9.671111-8.760889-25.372444-20.138667-47.047111-34.190223-3.072-1.934222-4.551111-3.527111-4.551111-4.892444 0-1.251556 1.308444-2.730667 3.982222-4.209778 15.189333-8.760889 27.875556-16.156444 37.944889-22.243555 10.069333-6.144 17.635556-11.036444 22.528-14.791111 10.24-6.883556 15.416889-14.506667 15.416889-22.869334 0-7.964444-3.640889-16.156444-10.808889-24.576-7.281778-7.964444-14.961778-11.946667-23.153778-11.946666-8.135111 0-18.318222 3.811556-30.492444 11.377777a2791.139556 2791.139556 0 0 1-185.457778 106.666667c-13.312 7.623111-19.911111 15.189333-19.911111 22.812444 0 7.964444 3.584 16.156444 10.808889 24.576 7.68 8.704 15.473778 13.084444 23.381333 13.084445 5.006222 0 9.898667-1.308444 14.848-3.982222l68.494222-35.384889c4.209778-2.616889 6.997333-3.982222 8.533334-3.982222 3.811556 0 15.018667 6.997333 33.678222 21.105777 19.000889 14.449778 28.501333 22.243556 28.501333 23.381334 0 1.536-2.844444 2.275556-8.533333 2.275555h-199.111111c-5.688889 0-8.533333-2.844444-8.533334-8.533333v-95.288889c0-5.688889 1.934222-8.533333 5.916445-8.533333 3.982222 0 13.653333 2.048 28.785778 6.257777 7.623111 2.275556 13.824 4.266667 18.545777 5.973334 4.778667 1.706667 8.874667 3.015111 12.288 3.982222l8.533334 2.275556c2.332444 0.568889 4.551111 0.910222 6.883555 0.910222 9.898667 0 17.294222-4.209778 22.243556-12.515556 9.500444-15.644444 9.898667-28.16 1.137778-37.717333-4.551111-4.551111-15.815111-10.638222-33.621334-18.204445a225.166222 225.166222 0 0 0-56.547555-16.554666c-9.500444-1.536-17.635556-2.616889-24.234667-3.413334-6.656-0.796444-12.117333-1.137778-16.270222-1.137777-14.791111 0-25.258667 4.266667-31.345778 12.8-6.144 8.533333-9.102222 22.584889-9.102222 41.927111V658.773333z m-167.139556 38.798223a48.810667 48.810667 0 0 0 6.542223 12.856888 33.792 33.792 0 0 0 10.581333 9.671112 28.558222 28.558222 0 0 0 14.791111 3.754666c11.434667 0 27.591111-6.485333 48.526222-19.342222 10.24-6.542222 19.342222-12.231111 27.363556-17.180444 7.964444-4.949333 14.791111-9.500444 20.252444-13.653334a48.355556 48.355556 0 0 0 12.288-12.856889c2.616889-4.380444 3.982222-9.272889 3.982223-14.563555a36.465778 36.465778 0 0 0-10.808889-25.713778c-6.826667-7.964444-14.392889-11.946667-22.584889-11.946667a34.872889 34.872889 0 0 0-21.390222 6.826667c-14.449778 11.036444-39.765333 27.192889-75.832889 48.469333-10.695111 6.144-15.985778 13.198222-15.985778 21.105778 0 3.811556 0.739556 7.964444 2.275555 12.572445z m534.300445-461.255112a32.369778 32.369778 0 0 0-5.973333-16.839111 28.216889 28.216889 0 0 0-14.791112-10.808889c-5.745778-1.934222-22.528-3.072-50.232888-3.413333a2250.353778 2250.353778 0 0 0-194.218667 0.796445c-31.402667 1.706667-55.580444 4.494222-72.704 8.248888-34.247111 6.826667-61.44 20.195556-81.578667 39.936-4.551111 4.551111-9.102222 6.826667-13.653333 6.826667a21.048889 21.048889 0 0 1-12.629333-4.551111c-3.413333-3.413333-10.808889-12.515556-22.186667-27.306667-10.695111-14.904889-18.318222-23.779556-22.869333-26.851555a30.833778 30.833778 0 0 0-17.806223-4.551111 33.848889 33.848889 0 0 0-12.231111 2.616889 42.325333 42.325333 0 0 0-12.003555 7.111111 37.376 37.376 0 0 0-8.817778 10.808889 28.387556 28.387556 0 0 0-3.413333 13.710222c0 5.745778 1.308444 11.036444 3.982222 16.042666 3.015111 5.290667 10.808889 14.791111 23.324444 28.444445 6.485333 6.883556 13.425778 13.767111 20.878222 20.593778 7.395556 6.826667 14.904889 13.482667 22.528 19.968a9.386667 9.386667 0 0 1 2.844445 6.826666V474.510222c0 5.290667-0.625778 8.817778-1.991111 10.581334-1.365333 1.706667-3.697778 2.56-7.111111 2.56h-30.833778a35.157333 35.157333 0 0 0-25.088 9.102222 29.980444 29.980444 0 0 0-9.671111 22.812444c0 9.102222 3.185778 16.782222 9.671111 22.812445a35.157333 35.157333 0 0 0 25.088 9.102222h62.179555c17.123556 0 29.013333-5.006222 35.669334-15.075556 6.656-10.126222 9.955556-26.168889 9.955555-48.184889v-167.708444c0-1.934222 0.568889-3.640889 1.706667-5.12 1.536-2.332444 7.793778-7.054222 18.830222-14.336a154.908444 154.908444 0 0 1 39.992889-18.204444c7.623111-2.616889 15.701333-4.778667 24.234667-6.257778 8.533333-1.536 17.635556-2.673778 27.136-3.413334 9.500444-0.796444 21.845333-1.365333 37.091555-1.706666a2025.073778 2025.073778 0 0 1 114.631111 0.227555c19.000889 0.568889 37.262222 1.194667 54.784 1.991111a12984.775111 12984.775111 0 0 0 54.158223 2.275556 22.755556 22.755556 0 0 0 18.204444-5.12 34.702222 34.702222 0 0 0 10.581333-15.36c2.161778-6.144 2.844444-12.515556 2.332445-19.171556z"  horiz-adv-x="1024" />

    
    <glyph glyph-name="shezhi2" unicode="&#58920;" d="M514.231 547.589c-90.345 0-163.589-73.243-163.589-163.589 0-90.35 73.243-163.589 163.589-163.589s163.589 73.238 163.589 163.589c-0.001 90.345-73.243 163.589-163.589 163.589zM514.231 261.309c-67.759 0-122.691 54.929-122.691 122.691 0 67.759 54.933 122.691 122.691 122.691 67.762 0 122.691-54.933 122.691-122.691 0-67.762-54.929-122.691-122.691-122.691zM824.471 488.156c-4.803 14.311-10.576 28.178-17.226 41.528 9.247 39.887-1.662 83.498-32.744 114.58-31.083 31.083-74.692 41.993-114.575 32.749-13.355 6.653-27.226 12.428-41.542 17.232-21.668 34.721-60.208 57.828-104.153 57.828-43.941 0-82.481-23.107-104.151-57.827-14.317-4.805-28.188-10.58-41.543-17.233-39.884 9.245-83.494-1.667-114.575-32.749-31.082-31.082-41.992-74.693-32.744-114.58-6.651-13.352-12.424-27.218-17.227-41.53-34.724-21.668-57.833-60.211-57.833-104.155 0-43.947 23.11-82.488 57.834-104.156 4.803-14.311 10.576-28.177 17.227-41.528-9.247-39.888 1.662-83.498 32.744-114.585 31.085-31.085 74.695-41.995 114.581-32.747 13.353-6.652 27.22-12.426 41.534-17.229 21.669-34.721 60.21-57.828 104.153-57.828 43.945 0 82.484 23.107 104.154 57.829 14.314 4.804 28.18 10.577 41.534 17.228 39.887-9.247 83.497 1.664 114.581 32.747 31.082 31.085 41.992 74.697 32.744 114.584 6.652 13.351 12.424 27.217 17.226 41.528 34.726 21.667 57.834 60.21 57.834 104.157-0.001 43.946-23.11 82.488-57.835 104.157zM790.343 308.185c-6.37-23.253-15.59-45.327-27.276-65.815 12.587-29.764 6.771-65.461-17.488-89.721-24.256-24.256-59.953-30.072-89.72-17.487-20.487-11.686-42.56-20.904-65.813-27.274-12.147-29.946-41.509-51.065-75.815-51.065s-63.668 21.12-75.815 51.066c-23.252 6.37-45.325 15.589-65.813 27.274-29.766-12.585-65.463-6.77-89.723 17.487-24.257 24.261-30.073 59.957-17.486 89.722-11.686 20.487-20.904 42.561-27.274 65.813-29.946 12.147-51.066 41.509-51.066 75.815s21.12 63.668 51.066 75.815c6.37 23.253 15.589 45.325 27.274 65.813-12.585 29.766-6.771 65.463 17.487 89.723 24.261 24.257 59.957 30.072 89.723 17.487 20.487 11.686 42.561 20.904 65.813 27.275 12.148 29.944 41.509 51.066 75.815 51.066 34.304 0 63.668-21.122 75.815-51.066 23.252-6.37 45.326-15.589 65.813-27.275 29.766 12.585 65.463 6.771 89.72-17.487 24.26-24.26 30.076-59.955 17.489-89.722 11.687-20.488 20.904-42.562 27.275-65.814 29.946-12.147 51.067-41.509 51.067-75.815s-21.123-63.668-51.067-75.815z"  horiz-adv-x="1024" />

    
    <glyph glyph-name="weibo1" unicode="&#58884;" d="M411.271 288.35c-17.974 7.505-41.189-0.229-52.264-17.543-11.224-17.395-5.955-38.104 11.87-46.201 18.109-8.232 42.132-0.418 53.342 17.421 11.035 18.028 5.228 38.602-12.948 46.323zM455.545 306.648c-6.885 2.722-15.508-0.579-19.55-7.33-3.921-6.791-1.752-14.525 5.147-17.368 7.020-2.883 16.007 0.458 20.049 7.37 3.88 6.939 1.361 14.767-5.645 17.327zM427.52 426.685c-115.968-11.439-203.924-82.216-196.379-158.073 7.532-75.911 107.655-128.162 223.65-116.749 115.995 11.439 203.924 82.216 196.392 158.141-7.518 75.857-107.641 128.108-223.663 116.682zM529.3 247.7c-23.673-53.356-91.769-81.799-149.531-63.232-55.754 17.933-79.373 72.812-54.946 122.247 23.956 48.465 86.353 75.87 141.541 61.561 57.142-14.713 86.299-68.419 62.936-120.576zM512 896c-282.759 0-512-229.228-512-512 0-282.759 229.241-512 512-512 282.772 0 512 229.241 512 512 0 282.772-229.228 512-512 512zM455.532 101.026c-145.354 0-293.942 70.198-293.942 185.667 0 60.362 38.387 130.183 104.475 196.069 88.253 87.929 191.165 127.987 229.875 89.398 17.085-17.004 18.742-46.457 7.761-81.624-5.726-17.691 16.667-7.896 16.667-7.936 71.343 29.763 133.565 31.515 156.322-0.862 12.14-17.246 10.954-41.472-0.216-69.511-5.174-12.921 1.59-14.929 11.466-17.88 40.179-12.423 84.925-42.456 84.925-95.38-0.027-87.606-126.774-197.942-317.332-197.942zM718.673 468.197c4.716 14.457 1.765 30.963-9.203 43.062-10.954 12.072-27.136 16.667-42.038 13.528v0.027c-12.463-2.695-24.724 5.268-27.392 17.664-2.668 12.463 5.282 24.697 17.745 27.338 30.531 6.467 63.596-2.937 85.989-27.715 22.447-24.765 28.456-58.489 18.85-88.064-3.907-12.099-16.936-18.728-29.063-14.848-12.14 3.921-18.782 16.923-14.875 28.995l-0.013 0zM853.261 424.866c-0.013-0.013-0.013-0.081-0.013-0.108-4.568-14.026-19.712-21.706-33.779-17.165-14.134 4.554-21.854 19.591-17.3 33.671v0.013c13.999 43.17 5.12 92.429-27.567 128.566-32.714 36.123-80.95 49.92-125.507 40.488-14.484-3.085-28.753 6.131-31.838 20.574-3.099 14.403 6.144 28.632 20.642 31.717h0.027c62.626 13.272 130.52-6.117 176.546-56.967 46.013-50.769 58.422-120.037 38.791-180.79z"  horiz-adv-x="1024" />

    
    <glyph glyph-name="qq" unicode="&#59017;" d="M512 896C229.228 896 0 666.7719999999999 0 384c0-282.745 229.228-512 512-512s512 229.255 512 512C1024 666.7719999999999 794.772 896 512 896z m226.856-637.063s-16.208-44.22-45.945-83.94c0 0 53.127-18.056 48.64-64.984 0 0 1.779-52.346-113.462-48.735 0 0-81.07 6.32-105.377 40.61h-21.424c-24.306-34.304-105.35-40.61-105.35-40.61-115.281-3.61-113.476 48.735-113.476 48.735-4.5 46.928 48.627 64.983 48.627 64.983-29.71 39.72-45.918 83.941-45.918 83.941-72.058-116.44-64.85 16.25-64.85 16.25 13.528 78.524 70.239 129.967 70.239 129.967-8.111 71.316 21.612 83.94 21.612 83.94C318.41 709.7139999999999 508.025 705.86 512 705.7529999999999c3.988 0.107 193.576 3.96 199.828-216.644 0 0 29.71-12.638 21.612-83.94 0 0 56.738-51.443 70.238-129.968 0-0.013 7.195-132.702-64.822-16.263z m0 0"  horiz-adv-x="1024" />

    
    <glyph glyph-name="dizhi" unicode="&#58921;" d="M518.4 848c-214.4 0-390.4-176-390.4-393.6 0-48 16-99.2 41.6-156.8 28.8-57.6 70.4-118.4 118.4-182.4 35.2-41.6 73.6-83.2 108.8-121.6 12.8-12.8 25.6-25.6 35.2-35.2 6.4-6.4 12.8-9.6 12.8-12.8l0 0c38.4-38.4 102.4-38.4 137.6 0 3.2 3.2 6.4 6.4 12.8 12.8 9.6 9.6 22.4 22.4 35.2 35.2 38.4 38.4 73.6 80 108.8 121.6 51.2 60.8 92.8 124.8 118.4 182.4 28.8 57.6 41.6 108.8 41.6 156.8C908.8 672 732.8 848 518.4 848zM822.4 320c-25.6-54.4-64-112-115.2-172.8-35.2-41.6-70.4-83.2-105.6-118.4-12.8-12.8-25.6-25.6-35.2-35.2-6.4-6.4-9.6-9.6-12.8-12.8-19.2-19.2-51.2-19.2-70.4 0l0 0c-3.2 3.2-6.4 6.4-12.8 12.8-9.6 9.6-22.4 22.4-35.2 35.2-35.2 38.4-73.6 76.8-105.6 118.4-48 60.8-86.4 118.4-115.2 172.8-25.6 51.2-38.4 96-38.4 134.4 0 192 153.6 345.6 342.4 345.6 188.8 0 342.4-153.6 342.4-345.6C860.8 416 848 371.2 822.4 320zM518.4 633.6c-96 0-169.6-76.8-169.6-172.8 0-96 76.8-172.8 169.6-172.8s169.6 76.8 169.6 172.8C688 556.8 614.4 633.6 518.4 633.6zM518.4 339.2c-67.2 0-121.6 54.4-121.6 124.8s54.4 124.8 121.6 124.8c67.2 0 121.6-54.4 121.6-124.8S585.6 339.2 518.4 339.2z"  horiz-adv-x="1024" />

    
    <glyph glyph-name="dizhi1" unicode="&#58971;" d="M640 509.866667c0 70.4-57.6 128-128 128s-128-57.6-128-128 57.6-128 128-128 128 57.6 128 128z m-213.333333 0c0 46.933333 38.4 85.333333 85.333333 85.333333s85.333333-38.4 85.333333-85.333333-38.4-85.333333-85.333333-85.333334-85.333333 38.4-85.333333 85.333334zM499.2 44.8c4.266667-4.266667 8.533333-4.266667 12.8-4.266667s10.666667 2.133333 12.8 4.266667c12.8 10.666667 328.533333 279.466667 328.533333 465.066667 0 187.733333-153.6 341.333333-341.333333 341.333333s-341.333333-153.6-341.333333-341.333333c0-185.6 313.6-452.266667 328.533333-465.066667z m12.8 763.733333c164.266667 0 298.666667-134.4 298.666667-298.666666 0-145.066667-238.933333-364.8-298.666667-420.266667-59.733333 53.333333-298.666667 275.2-298.666667 420.266667 0 164.266667 134.4 298.666667 298.666667 298.666666zM755.2 238.933333c-10.666667 2.133333-23.466667-4.266667-25.6-17.066666s4.266667-23.466667 17.066667-25.6c117.333333-23.466667 170.666667-59.733333 170.666666-85.333334v-8.533333c0-44.8-153.6-106.666667-405.333333-106.666667s-405.333333 61.866667-405.333333 106.666667c0 23.466667 53.333333 61.866667 170.666666 85.333333 10.666667 2.133333 19.2 12.8 17.066667 25.6-2.133333 10.666667-12.8 19.2-25.6 17.066667-76.8-14.933333-204.8-53.333333-204.8-125.866667 0-98.133333 226.133333-149.333333 448-149.333333s448 51.2 448 149.333333v8.533334c0 72.533333-128 110.933333-204.8 125.866666z"  horiz-adv-x="1024" />

    
    <glyph glyph-name="song" unicode="&#58880;" d="M514.346 892.986c-281.094 0-508.97-227.875-508.97-508.97 0-281.099 227.875-508.975 508.97-508.975 281.099 0 508.974 227.877 508.974 508.975 0 281.094-227.875 508.97-508.974 508.97zM514.346-61.338c-245.958 0-445.348 199.39-445.348 445.351 0 245.958 199.39 445.348 445.348 445.348 245.964 0 445.35-199.39 445.35-445.348 0-245.959-199.387-445.351-445.35-445.351zM224.396 512.407h184.75l-42.809-158.276h43.371l-36.049-199.958h384.709v-42.807h-523.27l35.485 180.244h-41.118l41.681 173.485h-46.751v47.313zM382.672 641.395l7.886-99.134h-133.493l-7.886 99.134h133.493zM559.537 638.579l14.082-91.249h27.599l14.644 91.249h118.286l-14.644-91.249h30.979v-42.809h-103.642l-29.854-101.388h139.125v-42.244h-52.383l52.383-177.991h-133.492l-35.486 119.975-34.922-119.975h-132.929l51.82 177.991h-51.82v42.244h64.211l29.29 101.388h-87.87v42.809h30.417l-14.082 91.249h118.285z"  horiz-adv-x="1024" />

    
    <glyph glyph-name="guanzhu1" unicode="&#58924;" d="M684.8 808c-64 0-124.8-20.8-172.8-60.8-48 38.4-108.8 60.8-172.8 60.8-121.6 0-225.6-78.4-260.8-187.2-8-25.6-12.8-52.8-12.8-81.6 0-60.8 22.4-121.6 60.8-169.6 4.8-4.8 339.2-379.2 342.4-382.4 11.2-11.2 25.6-19.2 41.6-19.2s32 6.4 41.6 19.2l342.4 384 1.6 1.6c38.4 48 60.8 107.2 60.8 168 1.6 145.6-120 267.2-272 267.2z"  horiz-adv-x="1024" />

    
    <glyph glyph-name="yonghuming1" unicode="&#58896;" d="M633.344 363.52c159.744-55.808 276.992-218.624 287.232-413.696 0.512-14.336-11.264-26.624-26.112-26.624H128.512c-14.336 0-26.624 12.288-26.112 26.624 9.728 195.584 128 357.888 287.744 413.696C310.272 407.04 256 491.52 256 588.8c0 141.312 114.688 256 256 256s256-114.688 256-256c0-97.28-54.784-182.272-134.656-225.28z m-121.856-30.72c-181.76 0-333.312-155.136-355.84-358.4h711.168c-22.016 203.264-173.568 358.4-355.328 358.4z m0.512 51.2c113.152 0 204.8 91.648 204.8 204.8s-91.648 204.8-204.8 204.8-204.8-91.648-204.8-204.8 91.648-204.8 204.8-204.8z"  horiz-adv-x="1024" />

    
    <glyph glyph-name="zhifubao" unicode="&#58890;" d="M230.41 319.463c-12.091-9.729-25.046-23.915-28.805-41.983-5.12-24.664-1.066-55.543 22.727-79.754 28.827-29.367 72.639-37.396 91.556-38.779 51.402-3.723 106.189 21.762 147.481 50.833 16.188 11.421 43.899 34.357 70.385 69.737-59.367 30.641-133.475 64.552-212.703 61.232-40.471-1.707-69.456-10.096-90.642-21.287zM983.277 183.907c25.748 58.878 40.73 127.489 40.73 199.6 0 0.173-0 0.347-0 0.52 0 282.283-229.669 511.973-512.007 511.973s-512-229.683-512-511.993c0-282.346 229.669-512.007 512.007-512.007 170.388 0 321.499 83.721 414.625 212.127-87.992 43.74-233.017 115.738-322.356 159.298-42.631-48.587-105.649-97.31-176.841-118.489-44.72-13.301-85.039-18.378-127.202-9.758-41.738 8.555-72.473 28.092-90.397 47.694-9.131 9.988-19.616 22.698-27.199 37.814 0.713-1.916 1.203-3.053 1.203-3.053s-4.357 7.518-7.698 19.501c-2.157 6.98-3.455 15.016-3.573 23.337 0.016-2.796-0.107-0.021-0.107 2.783 0 1.783 0.050 3.555 0.148 5.313-0.385 7.468-0.076 15.548 1.66 23.822 4.184 20.25 12.818 43.805 35.171 65.69 49.062 48.047 114.773 50.632 148.813 50.43 50.423-0.295 138.048-22.353 211.817-48.45 20.431 43.517 33.544 90.073 42.005 121.103h-306.765v33.169h157.52v66.338h-190.688v33.169h190.688v66.316c0 9.102 1.8 16.584 16.584 16.584h74.612v-82.901h207.302v-33.169h-207.294v-66.338h165.823s-16.657-92.831-68.722-184.315c115.558-41.285 278.133-104.864 332.142-126.108z"  horiz-adv-x="1027" />

    
    <glyph glyph-name="qiandai" unicode="&#59011;" d="M264.272-48.485c-73.263 0-137.438 51.292-156.068 124.733-10.219 40.891-13.627 83.871-10.416 131.434 11.074 156.023 101.453 292.661 236.923 359.587-2.083 2.179-4.143 4.416-6.111 6.743-28.099 31.598-44.602 68.083-50.261 111.308-6.845 55.354 33.398 93.245 76.694 102.115 22.642 4.631 44.64 2.64 65.011-5.879 25.127 22.199 57.609 34.383 91.872 34.383 34.517 0 67.137-12.297 92.371-34.729 41.511 16.723 80.486 10.699 113.232-17.011 26.544-22.675 34.934-50.521 28.099-93.139l-0.297-1.334c-0.969-3.475-1.737-6.412-2.463-9.173-1.801-6.907-3.355-12.874-6.912-22.829-8.429-24.025-23.501-46.445-47.174-70.055 7.257-3.634 14.669-7.406 21.758-11.545 103.081-60.576 171.145-150.548 202.343-267.433 15.903-59.735 18.903-122.443 8.903-186.384-5.357-32.731-14.343-57.581-28.301-78.297-33.163-48.134-77.991-72.494-133.311-72.494-55.066 0-110.074 0.052-165.063 0.106-109.901 0.101-219.739 0.211-329.785-0.106h-1.051zM355.289 550.493c-133.349-61.267-222.821-193.209-233.558-344.463-3.034-44.986 0.154-85.531 9.749-123.917 15.911-62.741 70.522-106.594 132.791-106.594l0.926 0.005c110.169 0.317 219.998 0.211 329.923 0.106 54.979-0.057 109.983-0.106 165.038-0.106 46.954 0 85.133 20.866 113.482 62.006 12.053 17.885 19.607 39.067 24.442 68.572 9.461 60.537 6.638 119.923-8.4 176.414-29.511 110.563-93.874 195.653-191.285 252.903-7.301 4.263-15.001 8.108-23.151 12.188-4.118 2.059-8.242 4.118-12.303 6.235l-6.466 3.36v7.277c0 3.485 1.474 6.941 4.042 9.485 1.075 1.081 2.337 2.213 3.609 3.346 0.897 0.797 1.795 1.584 2.592 2.381 24.091 23.002 38.837 43.925 46.594 66.043 3.226 9.029 4.594 14.261 6.317 20.885 0.706 2.703 1.459 5.568 2.386 8.903 5.303 33.783-0.341 53.558-20.054 70.393-26.573 22.483-57.351 26.501-91.162 12.014l-0.595-0.245c-1.723-0.701-4.334-1.751-7.709-1.751-3.014 0-7.474 0.869-11.621 5.021-20.962 19.906-49.085 30.989-78.965 30.989-29.376 0-57.125-10.771-78.139-30.326l-0.682-0.586c-2.649-2.117-6.374-4.551-11.726-4.551-2.016 0-4.075 0.361-6.288 1.099l-1.248 0.499c-16.8 7.786-34.944 9.749-53.991 5.851-32.491-6.657-62.746-34.752-57.696-75.571 5.006-38.217 19.594-70.507 44.583-98.615 3.072-3.623 6.346-6.955 9.815-10.483 2.453-2.496 4.919-5.002 7.311-7.594l12.586-13.642-17.602-5.879c-3.283-1.82-7.123-3.097-11.202-3.597zM264.301-50.885h-0.029c-74.362 0-139.497 52.037-158.395 126.543-10.286 41.141-13.709 84.369-10.487 132.183 11.054 155.76 100.743 292.32 235.358 360.129-12.355 13.284-22.123 29.164-28.38 46.71-4.006-10.282-20.686 26.605-26.407 70.324-7.028 56.807 34.219 95.687 78.591 104.779 22.531 4.598 44.669 2.741 65.031-5.443 25.344 21.959 57.936 33.998 92.332 33.998 34.598 0 67.334-12.158 92.851-34.358 15.086 5.899 30.106 8.923 44.549 8.923 25.2 0 48.672-9.043 69.744-26.875 27.274-23.294 35.904-51.802 28.921-95.351l-0.283-1.291c-12.176-42.458-20.276-91.65-22.544-142.359 18.262 126.164 16.621 119.89 13.045 109.887-8.266-23.558-22.795-45.566-45.398-68.587 6.336-3.197 12.743-6.518 18.931-10.128 103.642-60.907 172.085-151.367 203.457-268.886 15.989-60.063 19.003-123.101 8.957-187.373-5.414-33.091-14.521-58.247-28.685-79.263-33.648-48.845-79.147-73.555-135.303-73.555-55.066 0-110.078 0.052-165.067 0.106l-3.706 0.005c-108.672 0.096-217.271 0.206-326.064-0.111l-1.017-0.005zM356.025 548.208c-132.379-60.864-221.227-191.995-231.903-342.346-3.014-44.731 0.154-85.037 9.686-123.168 15.643-61.675 69.297-104.774 130.464-104.774l0.935 0.005c108.897 0.317 217.508 0.211 326.203 0.111l3.711-0.005c54.983-0.057 109.983-0.106 165.038-0.106 46.114 0 83.631 20.511 111.499 60.965 11.837 17.568 19.277 38.452 24.053 67.603 9.403 60.206 6.601 119.251-8.352 175.402-29.337 109.929-93.326 194.534-190.176 251.453-7.229 4.214-15.254 8.227-23.011 12.106-4.143 2.069-8.271 4.132-12.341 6.254l-7.751 4.017v5.343l-2.751 1.411 2.761 2.501c0.185 4.314 2.058 8.158 4.971 10.915 0.855 0.864 2.157 2.035 3.473 3.202 0.869 0.773 1.728 1.531 2.501 2.299 23.827 22.748 38.391 43.383 46.023 65.131 3.211 8.986 4.623 14.409 6.265 20.692 0.754 2.899 1.497 5.712 2.395 8.947 5.108 32.64-0.326 51.721-19.301 67.92-25.733 21.777-55.829 25.699-88.661 11.641-3.571-1.449-6.475-2.083-9.36-2.083-4.977 0-9.547 1.945-13.219 5.626-20.477 19.445-47.991 30.274-77.255 30.274-28.766 0-55.934-10.541-76.503-29.683l-0.663-0.571c-3.014-2.423-7.263-5.203-13.367-5.203-2.299 0-4.608 0.398-7.066 1.219l-1.229 0.489c-16.612 7.675-34.201 9.571-52.766 5.785-31.406-6.437-60.663-33.552-55.795-72.926 4.939-37.714 19.334-69.575 43.997-97.319 3.029-3.571 6.249-6.849 9.663-10.315 2.544-2.583 5.031-5.111 7.44-7.723l15.111-16.377-21.235-7.137c-3.511-1.862-7.607-3.166-11.947-3.671z"  horiz-adv-x="1024" />

    
    <glyph glyph-name="kefu1" unicode="&#58915;" d="M512 646.093c-170.784 0-309.718-138.933-309.718-309.717 0-170.774 138.933-309.719 309.718-309.719s309.718 138.944 309.718 309.718c0 170.784-138.933 309.718-309.718 309.718zM512 74.304c-144.506 0-262.069 117.565-262.069 262.069s117.565 262.069 262.069 262.069 262.069-117.564 262.069-262.069-117.564-262.069-262.069-262.069zM940.842 455.473h-2.426c-22.638 227.279-205.202 405.018-426.416 405.018s-403.778-177.739-426.416-405.017h-2.426c-26.279 0-47.649-21.381-47.649-47.649v-142.947c0-26.268 21.37-47.65 47.649-47.65h47.65c26.279 0 47.649 21.382 47.649 47.65v142.947c0 25.296-19.876 45.861-44.811 47.362 22.175 201.058 183.268 357.653 378.353 357.653s356.178-156.595 378.355-357.653c-24.937-1.501-44.812-22.066-44.812-47.362v-142.947c0-26.268 21.37-47.65 47.649-47.65h47.65c26.279 0 47.649 21.382 47.649 47.65v142.947c-0.002 26.268-21.372 47.648-47.65 47.648zM130.807 264.878h-47.65v142.947h47.65v-142.947zM940.842 264.878h-47.65v142.947h47.65v-142.947zM321.404-44.842h381.193v-47.649h-381.193v47.649z"  horiz-adv-x="1024" />

    
    <glyph glyph-name="shouye" unicode="&#58991;" d="M966.144 409.088L526.848 848.384 89.088 410.624c-8.192-8.192-8.192-22.016 0-30.208 8.192-8.192 22.016-8.192 30.208 0l76.288 76.288v-437.76c0-30.208 24.576-54.784 54.784-54.784h559.104c30.208 0 54.784 24.576 54.784 54.784V450.048l71.168-71.168c4.096-4.096 9.728-6.144 15.36-6.144s10.752 2.048 15.36 6.144c8.192 8.192 8.192 22.016 0 30.208m-144.896-390.656c0-6.656-5.12-11.776-11.776-11.776H250.368c-6.656 0-11.776 5.12-11.776 11.776V499.2l288.256 288.256 294.4-294.4v-474.624zM406.528 440.32c0-67.072 54.272-121.344 121.344-121.344s121.344 54.272 121.344 121.344-54.272 121.344-121.344 121.344C460.8 561.152 406.528 506.88 406.528 440.32M527.36 518.144c43.008 0 78.336-35.328 78.336-78.336s-35.328-78.336-78.336-78.336-78.336 35.328-78.336 78.336c0.512 43.52 35.328 78.336 78.336 78.336"  horiz-adv-x="1024" />

    
    <glyph glyph-name="fanhuiico" unicode="&#58891;" d="M307.65856 382.72L768.031893 844.16A25.6 25.6 0 0 1 735.17856 882.346667l-2.133333-2.133334L252.405227 399.573333a25.6 25.6 0 0 1 0-36.053333l480.64-480.64a25.6 25.6 0 0 1 38.186666 33.92l-2.133333 2.133333zM751.605227-128a30.08 30.08 0 0 0-21.333334 9.386667L248.77856 362.666667a30.08 30.08 0 0 0-1.92 42.666666l1.92 1.92L729.41856 887.04a32.213333 32.213333 0 0 0 44.373333 0 30.08 30.08 0 0 0 1.92-42.666667l-1.92-1.92L315.97856 382.72l457.173333-456.746667a30.08 30.08 0 0 0-21.333333-53.76z m0 1009.493333a19.626667 19.626667 0 0 1-13.866667-5.76L257.09856 395.306667a19.626667 19.626667 0 0 1 0-27.52l480.64-480.64a19.626667 19.626667 0 0 1 13.866667-5.76 19.2 19.2 0 0 1 13.866666 5.76 19.626667 19.626667 0 0 1 0 27.52L298.69856 382.72l4.266667 4.266667L764.831893 848.426667a19.626667 19.626667 0 0 1-13.226666 33.28z"  horiz-adv-x="1024" />

    


  </font>
</defs>
</svg>
